<svg width="30" height="30" viewBox="0 0 30 30" fill="none" xmlns="http://www.w3.org/2000/svg">
<path d="M23.0464 26.1713H6.95386C6.17378 26.2158 5.40769 25.9503 4.8224 25.4327C4.2371 24.9151 3.88001 24.1872 3.82886 23.4075V9.65751C3.87969 8.87761 4.23665 8.1494 4.82198 7.6315C5.40731 7.1136 6.17357 6.84799 6.95386 6.89251H7.53136C7.69712 6.89251 7.85609 6.95836 7.9733 7.07557C8.09051 7.19278 8.15636 7.35175 8.15636 7.51751C8.15636 7.68327 8.09051 7.84224 7.9733 7.95945C7.85609 8.07666 7.69712 8.14251 7.53136 8.14251H6.95386C6.5054 8.10023 6.05818 8.23505 5.70781 8.51815C5.35744 8.80125 5.13171 9.21017 5.07886 9.65751V23.4075C5.13201 23.8546 5.35787 24.2632 5.70821 24.5461C6.05855 24.8289 6.50559 24.9636 6.95386 24.9213H23.0464C23.4946 24.9636 23.9417 24.8289 24.292 24.5461C24.6423 24.2632 24.8682 23.8546 24.9214 23.4075V9.65751C24.8685 9.21017 24.6428 8.80125 24.2924 8.51815C23.942 8.23505 23.4948 8.10023 23.0464 8.14251H22.4689C22.3031 8.14251 22.1441 8.07666 22.0269 7.95945C21.9097 7.84224 21.8439 7.68327 21.8439 7.51751C21.8439 7.35175 21.9097 7.19278 22.0269 7.07557C22.1441 6.95836 22.3031 6.89251 22.4689 6.89251H23.0464C23.8266 6.84799 24.5929 7.1136 25.1782 7.6315C25.7636 8.1494 26.1205 8.87761 26.1714 9.65751V23.4075C26.1202 24.1872 25.7631 24.9151 25.1778 25.4327C24.5925 25.9503 23.8264 26.2158 23.0464 26.1713Z" fill="#6ADADA"/>
<path d="M10.8064 7.76661L14.5564 4.01661C14.6718 3.89885 14.829 3.83146 14.9939 3.82911C15.0776 3.82862 15.1606 3.84497 15.2379 3.87718C15.3152 3.90939 15.3852 3.9568 15.4439 4.01661L19.1939 7.76661C19.3116 7.8843 19.3777 8.04392 19.3777 8.21036C19.3777 8.3768 19.3116 8.53642 19.1939 8.65411C19.0762 8.7718 18.9166 8.83792 18.7501 8.83792C18.5837 8.83792 18.4241 8.7718 18.3064 8.65411L15.6314 5.97911V16.5666C15.6282 16.7314 15.5613 16.8885 15.4448 17.005C15.3282 17.1215 15.1711 17.1884 15.0064 17.1916C14.8406 17.1916 14.6816 17.1258 14.5644 17.0086C14.4472 16.8913 14.3814 16.7324 14.3814 16.5666V5.95411L11.6939 8.65411C11.6356 8.71239 11.5664 8.75861 11.4903 8.79015C11.4141 8.82169 11.3325 8.83792 11.2501 8.83792C11.1677 8.83792 11.0861 8.82169 11.01 8.79015C10.9338 8.75861 10.8646 8.71239 10.8064 8.65411C10.7481 8.59584 10.7019 8.52666 10.6703 8.45052C10.6388 8.37438 10.6226 8.29277 10.6226 8.21036C10.6226 8.12795 10.6388 8.04635 10.6703 7.97021C10.7019 7.89407 10.7481 7.82489 10.8064 7.76661Z" fill="#6ADADA"/>
</svg>
